{
  "accessors": [
    {
      "bufferView": 2,
      "componentType": 5126,
      "count": 63249,
      "max": [
        9.641462326049805,
        5.895934581756592,
        6.360141754150391
      ],
      "min": [
        -8.949310302734375,
        -6.0240654945373535,
        -7.055980682373047
      ],
      "type": "VEC3"
    },
    {
      "bufferView": 2,
      "byteOffset": 758988,
      "componentType": 5126,
      "count": 63249,
      "max": [
        1.0,
        1.0,
        1.0
      ],
      "min": [
        -1.0,
        -1.0,
        -1.0
      ],
      "type": "VEC3"
    },
    {
      "bufferView": 3,
      "componentType": 5126,
      "count": 63249,
      "max": [
        1.0,
        1.0,
        0.9999999403953552,
        1.0
      ],
      "min": [
        -1.0,
        -1.0,
        -1.0,
        -1.0
      ],
      "type": "VEC4"
    },
    {
      "bufferView": 1,
      "componentType": 5126,
      "count": 63249,
      "max": [
        0.9992342591285706,
        0.9951668977737427
      ],
      "min": [
        0.04185853898525238,
        0.003956675995141268
      ],
      "type": "VEC2"
    },
    {
      "bufferView": 0,
      "componentType": 5125,
      "count": 63609,
      "type": "SCALAR"
    },
    {
      "bufferView": 2,
      "byteOffset": 1517976,
      "componentType": 5126,
      "count": 65534,
      "max": [
        6.907197952270508,
        10.19111442565918,
        19.188125610351563
      ],
      "min": [
        -6.038624286651611,
        -9.708008766174316,
        -16.297508239746094
      ],
      "type": "VEC3"
    },
    {
      "bufferView": 2,
      "byteOffset": 2304384,
      "componentType": 5126,
      "count": 65534,
      "max": [
        1.0,
        1.0,
        1.0
      ],
      "min": [
        -1.0,
        -1.0,
        -1.0
      ],
      "type": "VEC3"
    },
    {
      "bufferView": 3,
      "byteOffset": 1011984,
      "componentType": 5126,
      "count": 65534,
      "max": [
        0.9999962449073792,
        1.0,
        0.9999774098396301,
        1.0
      ],
      "min": [
        -0.9999670386314392,
        -1.0,
        -0.9999985694885254,
        -1.0
      ],
      "type": "VEC4"
    },
    {
      "bufferView": 1,
      "byteOffset": 505992,
      "componentType": 5126,
      "count": 65534,
      "max": [
        0.9990344643592834,
        0.9961233139038086
      ],
      "min": [
        0.005364634096622467,
        0.002758575137704611
      ],
      "type": "VEC2"
    },
    {
      "bufferView": 0,
      "byteOffset": 254436,
      "componentType": 5125,
      "count": 65994,
      "type": "SCALAR"
    },
    {
      "bufferView": 2,
      "byteOffset": 3090792,
      "componentType": 5126,
      "count": 58925,
      "max": [
        6.906544208526611,
        8.007715225219727,
        19.188125610351563
      ],
      "min": [
        -6.038624286651611,
        -7.826801300048828,
        -16.722808837890625
      ],
      "type": "VEC3"
    },
    {
      "bufferView": 2,
      "byteOffset": 3797892,
      "componentType": 5126,
      "count": 58925,
      "max": [
        1.0,
        1.0,
        1.0
      ],
      "min": [
        -1.0,
        -1.0,
        -1.0
      ],
      "type": "VEC3"
    },
    {
      "bufferView": 3,
      "byteOffset": 2060528,
      "componentType": 5126,
      "count": 58925,
      "max": [
        0.9999995827674866,
        1.0,
        0.9999703764915466,
        1.0
      ],
      "min": [
        -0.9999871253967285,
        -1.0,
        -0.9999894499778748,
        -1.0
      ],
      "type": "VEC4"
    },
    {
      "bufferView": 1,
      "byteOffset": 1030264,
      "componentType": 5126,
      "count": 58925,
      "max": [
        0.9987956285476685,
        0.993458092212677
      ],
      "min": [
        0.004997702781111002,
        0.013369480147957802
      ],
      "type": "VEC2"
    },
    {
      "bufferView": 0,
      "byteOffset": 518412,
      "componentType": 5125,
      "count": 59142,
      "type": "SCALAR"
    },
    {
      "bufferView": 2,
      "byteOffset": 4504992,
      "componentType": 5126,
      "count": 23730,
      "max": [
        0.75665283203125,
        2.6984782218933105,
        2.697254180908203
      ],
      "min": [
        -0.8433456420898438,
        -2.7000415325164795,
        -2.702007293701172
      ],
      "type": "VEC3"
    },
    {
      "bufferView": 2,
      "byteOffset": 4789752,
      "componentType": 5126,
      "count": 23730,
      "max": [
        1.0,
        1.0,
        1.0
      ],
      "min": [
        -1.0,
        -1.0,
        -1.0
      ],
      "type": "VEC3"
    },
    {
      "bufferView": 3,
      "byteOffset": 3003328,
      "componentType": 5126,
      "count": 23730,
      "max": [
        1.0,
        0.9999995827674866,
        1.0,
        1.0
      ],
      "min": [
        -1.0,
        -0.9999998807907104,
        -1.0,
        1.0
      ],
      "type": "VEC4"
    },
    {
      "bufferView": 1,
      "byteOffset": 1501664,
      "componentType": 5126,
      "count": 23730,
      "max": [
        0.9955102205276489,
        0.9955634474754333
      ],
      "min": [
        0.00029339996399357915,
        0.0770871564745903
      ],
      "type": "VEC2"
    },
    {
      "bufferView": 0,
      "byteOffset": 754980,
      "componentType": 5125,
      "count": 25554,
      "type": "SCALAR"
    },
    {
      "bufferView": 2,
      "byteOffset": 5074512,
      "componentType": 5126,
      "count": 35510,
      "max": [
        5.926797866821289,
        4.37770938873291,
        4.050518035888672
      ],
      "min": [
        -5.723203659057617,
        -4.62229061126709,
        -4.049488067626953
      ],
      "type": "VEC3"
    },
    {
      "bufferView": 2,
      "byteOffset": 5500632,
      "componentType": 5126,
      "count": 35510,
      "max": [
        1.0,
        1.0,
        1.0
      ],
      "min": [
        -1.0,
        -1.0,
        -1.0
      ],
      "type": "VEC3"
    },
    {
      "bufferView": 3,
      "byteOffset": 3383008,
      "componentType": 5126,
      "count": 35510,
      "max": [
        1.0,
        1.0,
        1.0,
        1.0
      ],
      "min": [
        -1.0,
        -1.0,
        -1.0,
        -1.0
      ],
      "type": "VEC4"
    },
    {
      "bufferView": 1,
      "byteOffset": 1691504,
      "componentType": 5126,
      "count": 35510,
      "max": [
        0.9953927397727966,
        0.995686948299408
      ],
      "min": [
        0.013192995451390743,
        0.08097518235445023
      ],
      "type": "VEC2"
    },
    {
      "bufferView": 0,
      "byteOffset": 857196,
      "componentType": 5125,
      "count": 36606,
      "type": "SCALAR"
    },
    {
      "bufferView": 2,
      "byteOffset": 5926752,
      "componentType": 5126,
      "count": 57317,
      "max": [
        12.482404708862305,
        9.318523406982422,
        10.689217567443848
      ],
      "min": [
        -16.058950424194336,
        -9.339359283447266,
        -10.610782623291016
      ],
      "type": "VEC3"
    },
    {
      "bufferView": 2,
      "byteOffset": 6614556,
      "componentType": 5126,
      "count": 57317,
      "max": [
        1.0,
        1.0,
        1.0
      ],
      "min": [
        -1.0,
        -1.0,
        -1.0
      ],
      "type": "VEC3"
    },
    {
      "bufferView": 3,
      "byteOffset": 3951168,
      "componentType": 5126,
      "count": 57317,
      "max": [
        1.0,
        1.0,
        1.0,
        1.0
      ],
      "min": [
        -0.9999959468841553,
        -1.0,
        -1.0,
        -1.0
      ],
      "type": "VEC4"
    },
    {
      "bufferView": 1,
      "byteOffset": 1975584,
      "componentType": 5126,
      "count": 57317,
      "max": [
        0.9998642206192017,
        0.9992098212242126
      ],
      "min": [
        0.00025224039563909173,
        0.006575624458491802
      ],
      "type": "VEC2"
    },
    {
      "bufferView": 0,
      "byteOffset": 1003620,
      "componentType": 5125,
      "count": 58890,
      "type": "SCALAR"
    },
    {
      "bufferView": 2,
      "byteOffset": 7302360,
      "componentType": 5126,
      "count": 65532,
      "max": [
        11.791292190551758,
        6.969780445098877,
        4.858612060546875
      ],
      "min": [
        -6.700498580932617,
        -6.23097562789917,
        -5.170646667480469
      ],
      "type": "VEC3"
    },
    {
      "bufferView": 2,
      "byteOffset": 8088744,
      "componentType": 5126,
      "count": 65532,
      "max": [
        1.0,
        1.0,
        1.0
      ],
      "min": [
        -1.0,
        -1.0,
        -1.0
      ],
      "type": "VEC3"
    },
    {
      "bufferView": 3,
      "byteOffset": 4868240,
      "componentType": 5126,
      "count": 65532,
      "max": [
        1.0,
        1.0,
        1.0,
        1.0
      ],
      "min": [
        -1.0,
        -1.0,
        -1.0,
        -1.0
      ],
      "type": "VEC4"
    },
    {
      "bufferView": 1,
      "byteOffset": 2434120,
      "componentType": 5126,
      "count": 65532,
      "max": [
        0.9980226755142212,
        0.9968715310096741
      ],
      "min": [
        0.0035745634231716394,
        0.009026704356074333
      ],
      "type": "VEC2"
    },
    {
      "bufferView": 0,
      "byteOffset": 1239180,
      "componentType": 5125,
      "count": 66450,
      "type": "SCALAR"
    },
    {
      "bufferView": 2,
      "byteOffset": 8875128,
      "componentType": 5126,
      "count": 34880,
      "max": [
        11.791292190551758,
        5.091217517852783,
        4.8611297607421875
      ],
      "min": [
        -5.571968078613281,
        -6.56703519821167,
        -5.053264617919922
      ],
      "type": "VEC3"
    },
    {
      "bufferView": 2,
      "byteOffset": 9293688,
      "componentType": 5126,
      "count": 34880,
      "max": [
        0.9999999403953552,
        1.0,
        1.0
      ],
      "min": [
        -1.0,
        -1.0,
        -0.9993915557861328
      ],
      "type": "VEC3"
    },
    {
      "bufferView": 3,
      "byteOffset": 5916752,
      "componentType": 5126,
      "count": 34880,
      "max": [
        1.0,
        1.0,
        0.9999635219573975,
        1.0
      ],
      "min": [
        -1.0,
        -0.9998209476470947,
        -1.0,
        -1.0
      ],
      "type": "VEC4"
    },
    {
      "bufferView": 1,
      "byteOffset": 2958376,
      "componentType": 5126,
      "count": 34880,
      "max": [
        0.9983758926391602,
        0.9934409856796265
      ],
      "min": [
        0.002973295981064439,
        0.002832363825291395
      ],
      "type": "VEC2"
    },
    {
      "bufferView": 0,
      "byteOffset": 1504980,
      "componentType": 5125,
      "count": 35154,
      "type": "SCALAR"
    },
    {
      "bufferView": 2,
      "byteOffset": 9712248,
      "componentType": 5126,
      "count": 65534,
      "max": [
        12.247692108154297,
        9.854429244995117,
        14.165721893310547
      ],
      "min": [
        -11.255200386047363,
        -10.145564079284668,
        -7.984289169311523
      ],
      "type": "VEC3"
    },
    {
      "bufferView": 2,
      "byteOffset": 10498656,
      "componentType": 5126,
      "count": 65534,
      "max": [
        1.0,
        1.0,
        1.0
      ],
      "min": [
        -1.0,
        -1.0,
        -1.0
      ],
      "type": "VEC3"
    },
    {
      "bufferView": 3,
      "byteOffset": 6474832,
      "componentType": 5126,
      "count": 65534,
      "max": [
        1.0,
        1.0,
        1.0,
        1.0
      ],
      "min": [
        -0.9999984502792358,
        -1.0,
        -1.0,
        -1.0
      ],
      "type": "VEC4"
    },
    {
      "bufferView": 1,
      "byteOffset": 3237416,
      "componentType": 5126,
      "count": 65534,
      "max": [
        0.9959837198257446,
        0.9949837327003479
      ],
      "min": [
        0.06300736963748932,
        0.008429338224232197
      ],
      "type": "VEC2"
    },
    {
      "bufferView": 0,
      "byteOffset": 1645596,
      "componentType": 5125,
      "count": 66132,
      "type": "SCALAR"
    },
    {
      "bufferView": 2,
      "byteOffset": 11285064,
      "componentType": 5126,
      "count": 5951,
      "max": [
        9.583549499511719,
        9.854429244995117,
        14.123554229736328
      ],
      "min": [
        -11.155191421508789,
        -8.967903137207031,
        -6.785848617553711
      ],
      "type": "VEC3"
    },
    {
      "bufferView": 2,
      "byteOffset": 11356476,
      "componentType": 5126,
      "count": 5951,
      "max": [
        0.9949025511741638,
        1.0,
        0.9998480081558228
      ],
      "min": [
        -0.9948294758796692,
        -1.0,
        -0.9993936419487
      ],
      "type": "VEC3"
    },
    {
      "bufferView": 3,
      "byteOffset": 7523376,
      "componentType": 5126,
      "count": 5951,
      "max": [
        0.999999463558197,
        0.9999799132347107,
        0.9999975562095642,
        1.0
      ],
      "min": [
        -0.7248050570487976,
        -0.9999952912330627,
        -0.9857765436172485,
        -1.0
      ],
      "type": "VEC4"
    },
    {
      "bufferView": 1,
      "byteOffset": 3761688,
      "componentType": 5126,
      "count": 5951,
      "max": [
        0.9558975100517273,
        0.9692389369010925
      ],
      "min": [
        0.0046989805996418,
        0.1847594529390335
      ],
      "type": "VEC2"
    },
    {
      "bufferView": 0,
      "byteOffset": 1910124,
      "componentType": 5125,
      "count": 6042,
      "type": "SCALAR"
    }
  ],
  "asset": {
    "extras": {
      "author": "Hooger Mechatronics (https://sketchfab.com/keivanh2001)",
      "license": "CC-BY-4.0 (http://creativecommons.org/licenses/by/4.0/)",
      "source": "https://sketchfab.com/3d-models/kuka-fbf142c588cc4b57a143e524f5a0bc11",
      "title": "kuka"
    },
    "generator": "Sketchfab-12.67.0",
    "version": "2.0"
  },
  "bufferViews": [
    {
      "buffer": 0,
      "byteLength": 1934292,
      "name": "floatBufferViews",
      "target": 34963
    },
    {
      "buffer": 0,
      "byteLength": 3809296,
      "byteOffset": 1934292,
      "byteStride": 8,
      "name": "floatBufferViews",
      "target": 34962
    },
    {
      "buffer": 0,
      "byteLength": 11427888,
      "byteOffset": 5743588,
      "byteStride": 12,
      "name": "floatBufferViews",
      "target": 34962
    },
    {
      "buffer": 0,
      "byteLength": 7618592,
      "byteOffset": 17171476,
      "byteStride": 16,
      "name": "floatBufferViews",
      "target": 34962
    }
  ],
  "buffers": [
    {
      "byteLength": 24790068,
      "uri": "scene.bin"
    }
  ],
  "images": [
    {
      "uri": "textures/armBody_baseColor.png"
    },
    {
      "uri": "textures/armBody_metallicRoughness.png"
    },
    {
      "uri": "textures/armBody_normal.png"
    }
  ],
  "materials": [
    {
      "doubleSided": true,
      "name": "armBody",
      "normalTexture": {
        "index": 2
      },
      "occlusionTexture": {
        "index": 1
      },
      "pbrMetallicRoughness": {
        "baseColorTexture": {
          "index": 0
        },
        "metallicRoughnessTexture": {
          "index": 1
        }
      }
    }
  ],
  "meshes": [
    {
      "name": "armAxis3_armBody_0",
      "primitives": [
        {
          "attributes": {
            "NORMAL": 1,
            "POSITION": 0,
            "TANGENT": 2,
            "TEXCOORD_0": 3
          },
          "indices": 4,
          "material": 0,
          "mode": 4
        }
      ]
    },
    {
      "name": "armAxis2_armBody_0",
      "primitives": [
        {
          "attributes": {
            "NORMAL": 6,
            "POSITION": 5,
            "TANGENT": 7,
            "TEXCOORD_0": 8
          },
          "indices": 9,
          "material": 0,
          "mode": 4
        }
      ]
    },
    {
      "name": "armAxis2_armBody_0",
      "primitives": [
        {
          "attributes": {
            "NORMAL": 11,
            "POSITION": 10,
            "TANGENT": 12,
            "TEXCOORD_0": 13
          },
          "indices": 14,
          "material": 0,
          "mode": 4
        }
      ]
    },
    {
      "name": "armAxis6_armBody_0",
      "primitives": [
        {
          "attributes": {
            "NORMAL": 16,
            "POSITION": 15,
            "TANGENT": 17,
            "TEXCOORD_0": 18
          },
          "indices": 19,
          "material": 0,
          "mode": 4
        }
      ]
    },
    {
      "name": "armAxis5_armBody_0",
      "primitives": [
        {
          "attributes": {
            "NORMAL": 21,
            "POSITION": 20,
            "TANGENT": 22,
            "TEXCOORD_0": 23
          },
          "indices": 24,
          "material": 0,
          "mode": 4
        }
      ]
    },
    {
      "name": "armMain_armBody_0",
      "primitives": [
        {
          "attributes": {
            "NORMAL": 26,
            "POSITION": 25,
            "TANGENT": 27,
            "TEXCOORD_0": 28
          },
          "indices": 29,
          "material": 0,
          "mode": 4
        }
      ]
    },
    {
      "name": "armAxis4_armBody_0",
      "primitives": [
        {
          "attributes": {
            "NORMAL": 31,
            "POSITION": 30,
            "TANGENT": 32,
            "TEXCOORD_0": 33
          },
          "indices": 34,
          "material": 0,
          "mode": 4
        }
      ]
    },
    {
      "name": "armAxis4_armBody_0",
      "primitives": [
        {
          "attributes": {
            "NORMAL": 36,
            "POSITION": 35,
            "TANGENT": 37,
            "TEXCOORD_0": 38
          },
          "indices": 39,
          "material": 0,
          "mode": 4
        }
      ]
    },
    {
      "name": "armAxis1_armBody_0",
      "primitives": [
        {
          "attributes": {
            "NORMAL": 41,
            "POSITION": 40,
            "TANGENT": 42,
            "TEXCOORD_0": 43
          },
          "indices": 44,
          "material": 0,
          "mode": 4
        }
      ]
    },
    {
      "name": "armAxis1_armBody_0",
      "primitives": [
        {
          "attributes": {
            "NORMAL": 46,
            "POSITION": 45,
            "TANGENT": 47,
            "TEXCOORD_0": 48
          },
          "indices": 49,
          "material": 0,
          "mode": 4
        }
      ]
    }
  ],
  "nodes": [
    {
      "children": [
        1
      ],
      "matrix": [
        -0.9980779886245728,
        -1.3760191676030856e-17,
        0.06197039410471916,
        0.0,
        0.06197039410471916,
        -2.2161783266851315e-16,
        0.9980779886245728,
        0.0,
        0.0,
        1.0,
        2.220446049250313e-16,
        0.0,
        125.28829956054688,
        -5.584568496226261e-06,
        -9.370400428771973,
        1.0
      ],
      "name": "Sketchfab_model"
    },
    {
      "children": [
        2
      ],
      "matrix": [
        1.0,
        0.0,
        0.0,
        0.0,
        0.0,
        0.0,
        1.0,
        0.0,
        0.0,
        -1.0,
        0.0,
        0.0,
        0.0,
        0.0,
        0.0,
        1.0
      ],
      "name": "ae59014f150d488e887613d273a52e76.fbx"
    },
    {
      "children": [
        3,
        5,
        8,
        10,
        12,
        14,
        17
      ],
      "name": "RootNode"
    },
    {
      "children": [
        4
      ],
      "matrix": [
        7.709792137145996,
        0.0,
        0.0,
        0.0,
        0.0,
        -1.2560845729536256e-06,
        -7.709792137145894,
        0.0,
        0.0,
        7.709792137145894,
        -1.2560845729536256e-06,
        0.0,
        36.0705451965332,
        472.5628356933594,
        -2.542494535446167,
        1.0
      ],
      "name": "armAxis3"
    },
    {
      "mesh": 0,
      "name": "armAxis3_armBody_0"
    },
    {
      "children": [
        6,
        7
      ],
      "matrix": [
        7.709792137145996,
        0.0,
        0.0,
        0.0,
        0.0,
        -1.2560845729536256e-06,
        -7.709792137145894,
        0.0,
        0.0,
        7.709792137145894,
        -1.2560845729536256e-06,
        0.0,
        3.716826915740967,
        353.4014587402344,
        -1.6544804573059082,
        1.0
      ],
      "name": "armAxis2"
    },
    {
      "mesh": 1,
      "name": "armAxis2_armBody_0"
    },
    {
      "mesh": 2,
      "name": "armAxis2_armBody_0"
    },
    {
      "children": [
        9
      ],
      "matrix": [
        7.709792137145996,
        0.0,
        0.0,
        0.0,
        0.0,
        -1.2560845729536256e-06,
        -7.709792137145894,
        0.0,
        0.0,
        7.709792137145894,
        -1.2560845729536256e-06,
        0.0,
        267.8639831542969,
        481.91107177734375,
        -2.3572750091552734,
        1.0
      ],
      "name": "armAxis6"
    },
    {
      "mesh": 3,
      "name": "armAxis6_armBody_0"
    },
    {
      "children": [
        11
      ],
      "matrix": [
        7.709792137145996,
        0.0,
        0.0,
        0.0,
        0.0,
        -1.2560845729536256e-06,
        -7.709792137145894,
        0.0,
        0.0,
        7.709792137145894,
        -1.2560845729536256e-06,
        0.0,
        219.52247619628906,
        481.8888244628906,
        -2.5288124084472656,
        1.0
      ],
      "name": "armAxis5"
    },
    {
      "mesh": 4,
      "name": "armAxis5_armBody_0"
    },
    {
      "children": [
        13
      ],
      "matrix": [
        7.709792137145996,
        0.0,
        0.0,
        0.0,
        -0.0,
        -1.2560845729536256e-06,
        -7.709792137145894,
        0.0,
        0.0,
        7.709792137145894,
        -1.2560845729536256e-06,
        0.0,
        -24.307178497314453,
        71.81494140625,
        -2.437255382537842,
        1.0
      ],
      "name": "armMain"
    },
    {
      "mesh": 5,
      "name": "armMain_armBody_0"
    },
    {
      "children": [
        15,
        16
      ],
      "matrix": [
        7.709792137145996,
        0.0,
        0.0,
        0.0,
        0.0,
        -1.2560845729536256e-06,
        -7.709792137145894,
        0.0,
        0.0,
        7.709792137145894,
        -1.2560845729536256e-06,
        0.0,
        154.3538818359375,
        483.077392578125,
        -3.6004343032836914,
        1.0
      ],
      "name": "armAxis4"
    },
    {
      "mesh": 6,
      "name": "armAxis4_armBody_0"
    },
    {
      "mesh": 7,
      "name": "armAxis4_armBody_0"
    },
    {
      "children": [
        18,
        19
      ],
      "matrix": [
        7.709792137145996,
        0.0,
        0.0,
        0.0,
        -0.0,
        -1.2560845729536256e-06,
        -7.709792137145894,
        0.0,
        0.0,
        7.709792137145894,
        -1.2560845729536256e-06,
        0.0,
        -2.6583364009857178,
        195.73834228515625,
        -3.479231119155884,
        1.0
      ],
      "name": "armAxis1"
    },
    {
      "mesh": 8,
      "name": "armAxis1_armBody_0"
    },
    {
      "mesh": 9,
      "name": "armAxis1_armBody_0"
    }
  ],
  "samplers": [
    {
      "magFilter": 9729,
      "minFilter": 9987,
      "wrapS": 10497,
      "wrapT": 10497
    }
  ],
  "scene": 0,
  "scenes": [
    {
      "name": "Sketchfab_Scene",
      "nodes": [
        0
      ]
    }
  ],
  "textures": [
    {
      "sampler": 0,
      "source": 0
    },
    {
      "sampler": 0,
      "source": 1
    },
    {
      "sampler": 0,
      "source": 2
    }
  ]
}
